<svg xmlns="http://www.w3.org/2000/svg" viewBox="76.83747509809416 50 421.3199768066406 475.00943247891985"> <svg x="147.07029223037955" y="120" xmlns="http://www.w3.org/2000/svg" preserveAspectRatio="none" width="280.8587627569416" height="280.8587627569416" fill="#545454" fill-opacity="1" style="overflow: visible;"><rect x="0" y="0" height="280.859" width="280.859" stroke-width="0" stroke="#000" style=""></rect></svg> <g transform="rotate(0 287.49967360885034 260.42943728550824)"><svg xmlns="http://www.w3.org/2000/svg" xmlns:xlink="http://www.w3.org/1999/xlink" version="1.1" id="Layer_1" x="159.26547535008885" y="132.2205343185582" viewBox="261.29998779296875 253.89999389648438 506.89996337890625 506.8000183105469" xml:space="preserve" height="256.41780593390007" width="256.468396517523" preserveAspectRatio="xMinYMin" enable-background="new 0 0 1000 1000" style="overflow: visible;"><path class="st0" d="M536.9,529.8c39-39,97.3-44.1,130.1-11.4c5.6,5.6,10.1,12,13.6,18.9c1.4-3.1,2.6-6.1,3.9-9.2   c-2.6-18.6-10.4-35.7-23.7-49c-16.6-16.6-39.1-24.7-63.1-24.7c-32,0-66.8,14.3-94.3,41.7c-23.4,23.4-38,52.8-41.2,82.6   c-3.1,29.6,5.5,56.1,24.1,74.7c12.9,12.9,29.7,21,48.7,23.7c3.2-1.2,6.3-2.6,9.4-3.9c-6.9-3.4-13.3-7.9-18.9-13.5   c-15.9-15.9-23.5-38.3-21.2-63C506.5,572.4,518.1,548.6,536.9,529.8z" style="fill: none;"></path><path class="st0" d="M568.3,353.9c-6.4,0-13,0.4-19.7,1.2c-44.5,5.3-88.4,27.6-123.7,62.8c-72.5,72.5-85.3,177.8-28.5,234.6   c23.7,23.7,56.5,36.1,93.5,35.5c-20.5-4.6-39.3-14.3-54.3-29.3c-50.9-50.9-40.7-143.9,22.8-207.3c30.6-30.6,68.9-49.9,107.9-54.3   c39.3-4.4,74.6,6.8,99.4,31.5c14.6,14.6,24.5,32.9,29.2,53.5c0.3-35.5-11.3-68.6-35.5-92.8C636.3,366.2,604.4,353.9,568.3,353.9z" style="fill: none;"></path><path class="st0" d="M658.5,651.4c101.1-101.1,115.4-251.2,32-334.6c-35.5-35.5-83.8-54.4-137.9-54.4c-7.4,0-14.9,0.4-22.5,1.1   c-63.3,6-125.3,36.3-174.3,85.3c-101.1,101.1-115.4,251.2-32,334.6c36.5,36.5,85.8,54.3,138.1,54.3   C529.3,737.7,601.6,708.3,658.5,651.4z M456.9,700.9c-43.9,0-82.6-15-111-43.4c-33.6-33.6-48.4-81.8-41.8-135.7   c6.6-53.6,33.5-106.4,76-148.9c42.4-42.4,95.3-69.4,148.9-76c53.9-6.6,102.1,8.2,135.7,41.8c33.6,33.6,48.4,81.8,41.8,135.7   c-6.6,53.6-33.5,106.4-76,148.9c-42.4,42.4-95.3,69.4-148.9,76C473.2,700.4,465,700.9,456.9,700.9z" style="fill: none;"></path><path class="st0" d="M583,404.2c-5.1,0-10.4,0.3-15.7,0.9c-37.2,4.2-73.8,22.7-103.2,52c-60.3,60.3-70.5,148.2-22.8,196   c20.2,20.2,47.7,30,77.1,30.1c0.7-0.2,1.4-0.4,2-0.6c-15.3-4.3-28.9-12.1-39.9-23.2c-20.4-20.4-29.7-49.2-26.4-81.2   c3.3-31.7,18.8-62.8,43.5-87.5c51.2-51.2,126.9-58.9,168.7-17.1c11.3,11.3,19,25.1,23.2,40.3c0.2-0.7,0.5-1.4,0.7-2.2   c0.1-30.6-10.4-57.6-30.1-77.3C640.4,414.6,613.5,404.2,583,404.2z" style="fill: none;"></path><path class="st0" d="M455.9,692.8c-25.1-5.3-47.4-17-65-34.7c-29.2-29.2-42.2-70.9-36.7-117.5c5.5-46.3,28.6-91.9,65.1-128.4   c36.5-36.5,82.1-59.7,128.4-65.1c46.6-5.5,88.4,7.5,117.5,36.7c17.7,17.7,29.5,40.2,34.8,65.5c-0.1-41.5-14.3-78-41-104.7   c-27.6-27.6-65.1-40.9-105.6-40.9c-56.3,0-118.4,25.8-167.6,75.1c-41.2,41.2-67.3,92.4-73.7,144.2c-6.3,51.4,7.7,97.3,39.5,129   C378.9,679.2,415.9,692.5,455.9,692.8z" style="fill: none;"></path><path class="st0" d="M661.3,524.1c-12.9-12.9-30.4-19.2-49-19.2c-23.9,0-49.6,10.4-69.8,30.6c-17.5,17.5-28.2,39.5-30.3,62.1   c-2,22.3,4.7,42.4,18.9,56.7c6.6,6.6,14.4,11.5,22.9,14.7c6.6-3.3,13.2-6.9,19.6-10.8c-0.1-0.1-0.3-0.3-0.4-0.4   c-22.1-22.1-19.6-60.5,5.7-85.8c25.3-25.3,63.7-27.8,85.8-5.7c0.2,0.2,0.3,0.3,0.5,0.5c3.9-6.4,7.5-13,10.8-19.6   C672.8,538.4,667.8,530.6,661.3,524.1z" style="fill: none;"></path><path d="M630.5,623.4c42.4-42.4,69.4-95.3,76-148.9c6.6-53.9-8.2-102.1-41.8-135.7c-33.6-33.6-81.8-48.4-135.7-41.8   c-53.6,6.6-106.4,33.5-148.9,76c-42.4,42.4-69.4,95.3-76,148.9c-6.6,53.9,8.2,102.1,41.8,135.7c28.4,28.4,67.1,43.4,111,43.4   c8.1,0,16.3-0.5,24.7-1.5C535.2,692.8,588,665.8,630.5,623.4z M312.1,522.9c6.3-51.8,32.5-103,73.7-144.2   c49.3-49.3,111.4-75.1,167.6-75.1c40.5,0,78,13.4,105.6,40.9c26.7,26.7,40.9,63.3,41,104.7c-5.3-25.3-17-47.7-34.8-65.5   c-29.2-29.2-70.9-42.2-117.5-36.7c-46.3,5.5-91.9,28.6-128.4,65.1c-36.5,36.5-59.7,82.1-65.1,128.4c-5.5,46.6,7.5,88.4,36.7,117.5   c17.6,17.6,39.9,29.4,65,34.7c-40-0.3-77-13.6-104.3-40.9C319.8,620.1,305.8,574.3,312.1,522.9z M695,482.2   c-4.7-20.6-14.6-38.9-29.2-53.5c-24.8-24.8-60.1-36-99.4-31.5c-39,4.4-77.3,23.7-107.9,54.3c-63.4,63.4-73.6,156.4-22.8,207.3   c15,15,33.7,24.7,54.3,29.3c-37,0.5-69.8-11.8-93.5-35.5c-56.8-56.8-44.1-162.1,28.5-234.6c35.3-35.3,79.2-57.6,123.7-62.8   c6.7-0.8,13.3-1.2,19.7-1.2c36.1,0,68,12.3,91.2,35.6C683.8,413.6,695.3,446.7,695,482.2z M690.2,511.7c-0.2,0.7-0.5,1.4-0.7,2.2   c-4.2-15.1-11.9-28.9-23.2-40.3c-41.8-41.8-117.5-34.1-168.7,17.1c-24.7,24.7-40.1,55.8-43.5,87.5c-3.4,32,6,60.9,26.4,81.2   c11.1,11.1,24.7,18.9,39.9,23.2c-0.7,0.2-1.4,0.4-2,0.6c-29.5,0-56.9-9.9-77.1-30.1c-47.8-47.8-37.5-135.7,22.8-196   c29.3-29.3,66-47.8,103.2-52c5.3-0.6,10.6-0.9,15.7-0.9c30.5,0,57.4,10.4,77.1,30.1C679.9,454.1,690.3,481.1,690.2,511.7z    M525.5,659.9c5.6,5.6,12,10.1,18.9,13.5c-3.1,1.4-6.3,2.7-9.4,3.9c-19-2.7-35.7-10.8-48.7-23.7c-18.6-18.6-27.2-45.2-24.1-74.7   c3.1-29.9,17.7-59.2,41.2-82.6c27.5-27.5,62.3-41.7,94.3-41.7c24,0,46.5,8.1,63.1,24.7c13.3,13.3,21.1,30.4,23.7,49   c-1.2,3.1-2.5,6.2-3.9,9.2c-3.5-7-8-13.4-13.6-18.9c-32.7-32.7-91.1-27.6-130.1,11.4c-18.8,18.8-30.4,42.6-32.6,67   C502,621.6,509.6,644,525.5,659.9z M664.7,566.2c-22.1-22.1-60.5-19.6-85.8,5.7c-25.3,25.3-27.8,63.7-5.7,85.8   c0.1,0.1,0.3,0.3,0.4,0.4c-6.5,3.9-13,7.6-19.6,10.8c-8.5-3.2-16.3-8.1-22.9-14.7c-14.2-14.2-21-34.4-18.9-56.7   c2.1-22.6,12.8-44.6,30.3-62.1c20.2-20.2,45.9-30.6,69.8-30.6c18.6,0,36,6.3,49,19.2c6.5,6.5,11.5,14.3,14.7,23   c-3.3,6.6-6.9,13.2-10.8,19.6C665,566.5,664.9,566.3,664.7,566.2z" style="fill: #C6FF24; fill-opacity: 1;"></path><path d="M751.8,477.9c6.2-65.5-13.6-124.7-55.6-166.7c-28-28-63.7-46.2-103.8-53.3h-81c-58.8,9.7-115.4,39.6-161.1,85.3   c-45.1,45.1-74.8,100.9-84.9,159v85.3c7.4,39.2,25.4,74.1,52.9,101.7c37,37,87.3,56.7,143.5,56.7c7.6,0,15.4-0.4,23.2-1.1   c65.2-6.1,128.8-37.2,179.2-87.6C714.5,606.7,745.7,543.1,751.8,477.9z M462,737.7c-52.3,0-101.6-17.8-138.1-54.3   c-83.4-83.4-69.1-233.6,32-334.6c49.1-49.1,111-79.4,174.3-85.3c7.6-0.7,15.1-1.1,22.5-1.1c54.1,0,102.4,18.9,137.9,54.4   c83.4,83.4,69.1,233.6-32,334.6C601.6,708.3,529.3,737.7,462,737.7z" style="fill: #C6FF24; fill-opacity: 1;"></path><path d="M265.3,392.5c15.2-27.1,34.5-52.9,58-76.3c23.3-23.3,49.2-42.9,76.7-58.3h-15.8c-23.8,14.6-46.2,32.2-66.6,52.7   c-20.3,20.3-37.8,42.5-52.3,66V392.5z" style="fill: #C6FF24; fill-opacity: 1;"></path><path d="M703.4,257.9h-13.7c11.7,7.9,22.6,17,32.7,27.1c17,17,31,36.4,41.8,57.6v-16.7c-10-16.9-22-32.5-36.1-46.6   C720.3,271.5,712,264.4,703.4,257.9z" style="fill: #C6FF24; fill-opacity: 1;"></path><path d="M265.3,683.1v13.8c6.4,8.5,13.4,16.5,21,24.1c13.9,13.9,29.3,25.9,46,35.8h16.7c-20.8-10.6-40-24.4-57.1-41.4   C282,705.3,273.1,694.5,265.3,683.1z" style="fill: #C6FF24; fill-opacity: 1;"></path><path d="M764.1,596.5v-18.9c-16.9,38.7-41.6,74.9-73.1,106.4c-31.8,31.8-68,56.1-105.9,72.7h19.2c33.4-16.8,64.7-39.3,92.4-67   C724.6,661.8,747.3,630.2,764.1,596.5z" style="fill: #C6FF24; fill-opacity: 1;"></path><path d="M288.6,281.5c8.3-8.3,16.9-16.2,25.7-23.7h-12.2c-6.5,5.8-12.9,11.8-19.1,18c-6.1,6.1-12,12.3-17.6,18.7v12.2   C272.6,298.2,280.4,289.7,288.6,281.5z" style="fill: #C6FF24; fill-opacity: 1;"></path><path d="M764.1,674.6c-11.6,15.3-24.3,30.1-38.4,44.1c-13.9,13.9-28.5,26.5-43.6,38h13.1c12.5-10,24.6-20.8,36.2-32.4   c11.7-11.7,22.6-24,32.7-36.7V674.6z" style="fill: #C6FF24; fill-opacity: 1;"></path><path d="M764.1,746.8c-1.7,1.7-3.4,3.5-5.1,5.2c-1.6,1.6-3.2,3.2-4.8,4.7h9.9V746.8z" style="fill: #C6FF24; fill-opacity: 1;"></path><path d="M768.1,760.7H261.3V253.9h506.9V760.7z M269.3,752.7h490.9V261.9H269.3V752.7z" style="fill: #C6FF24; fill-opacity: 1;"></path></svg></g> <svg x="146.83747509809416" y="423.4094301901015" viewBox="2.2300000190734863 7.389999866485596 281.3199768066406 31.60000228881836" height="31.60000228881836" width="281.3199768066406" style="overflow: visible;"><g fill="#545454" fill-opacity="1" style=""><path d="M14.23 38.58L2.23 38.58L2.23 9.02L12.85 9.02Q18.56 9.02 21.53 11.11Q24.51 13.20 24.51 17.18L24.51 17.18Q24.51 19.47 23.45 21.10Q22.40 22.72 20.35 23.49L20.35 23.49Q22.66 24.10 23.90 25.77Q25.14 27.43 25.14 29.83L25.14 29.83Q25.14 34.17 22.39 36.36Q19.63 38.54 14.23 38.58L14.23 38.58ZM14.36 26.01L9.36 26.01L9.36 33.10L14.03 33.10Q15.96 33.10 17.00 32.21Q18.03 31.33 18.03 29.73L18.03 29.73Q18.03 26.03 14.36 26.01L14.36 26.01ZM9.36 14.52L9.36 21.34L13.08 21.34Q15.41 21.32 16.41 20.49Q17.40 19.66 17.40 18.03L17.40 18.03Q17.40 16.16 16.33 15.34Q15.25 14.52 12.85 14.52L12.85 14.52L9.36 14.52ZM33.05 16.61L33.05 38.58L26.19 38.58L26.19 16.61L33.05 16.61ZM25.78 10.94L25.78 10.94Q25.78 9.48 26.84 8.55Q27.89 7.61 29.58 7.61Q31.26 7.61 32.32 8.55Q33.37 9.48 33.37 10.94Q33.37 12.41 32.32 13.34Q31.26 14.27 29.58 14.27Q27.89 14.27 26.84 13.34Q25.78 12.41 25.78 10.94ZM52.21 20.30L42.42 33.30L52.43 33.30L52.43 38.58L33.77 38.58L33.77 34.76L43.52 21.89L34.20 21.89L34.20 16.61L52.21 16.61L52.21 20.30ZM72.06 38.58L65.22 38.58Q64.85 37.91 64.57 36.61L64.57 36.61Q62.68 38.99 59.29 38.99L59.29 38.99Q56.18 38.99 54.01 37.11Q51.84 35.23 51.84 32.39L51.84 32.39Q51.84 28.81 54.48 26.99Q57.12 25.16 62.15 25.16L62.15 25.16L64.26 25.16L64.26 24.00Q64.26 20.97 61.64 20.97L61.64 20.97Q59.21 20.97 59.21 23.37L59.21 23.37L52.36 23.37Q52.36 20.18 55.08 18.19Q57.79 16.20 61.99 16.20Q66.19 16.20 68.63 18.25Q71.07 20.30 71.13 23.88L71.13 23.88L71.13 33.60Q71.17 36.63 72.06 38.23L72.06 38.23L72.06 38.58ZM60.93 34.11L60.93 34.11Q62.21 34.11 63.06 33.56Q63.90 33.02 64.26 32.33L64.26 32.33L64.26 28.81L62.27 28.81Q58.70 28.81 58.70 32.02L58.70 32.02Q58.70 32.95 59.33 33.53Q59.96 34.11 60.93 34.11ZM85.41 16.45L85.29 22.80L83.04 22.64Q79.81 22.64 78.90 24.67L78.90 24.67L78.90 38.58L72.05 38.58L72.05 16.61L78.47 16.61L78.69 19.43Q80.42 16.20 83.50 16.20L83.50 16.20Q84.60 16.20 85.41 16.45L85.41 16.45ZM98.26 16.45L98.14 22.80L95.88 22.64Q92.66 22.64 91.74 24.67L91.74 24.67L91.74 38.58L84.90 38.58L84.90 16.61L91.31 16.61L91.54 19.43Q93.26 16.20 96.35 16.20L96.35 16.20Q97.45 16.20 98.26 16.45L98.26 16.45ZM107.94 38.99L107.94 38.99Q102.88 38.99 99.75 35.97Q96.63 32.95 96.63 28.12L96.63 28.12L96.63 27.55Q96.63 24.18 97.88 21.60Q99.13 19.03 101.52 17.61Q103.92 16.20 107.21 16.20L107.21 16.20Q111.84 16.20 114.52 19.08Q117.20 21.95 117.20 27.09L117.20 27.09L117.20 29.75L103.59 29.75Q103.96 31.59 105.20 32.65Q106.43 33.71 108.40 33.71L108.40 33.71Q111.65 33.71 113.48 31.43L113.48 31.43L116.61 35.13Q115.33 36.89 112.98 37.94Q110.64 38.99 107.94 38.99ZM107.17 21.48L107.17 21.48Q104.16 21.48 103.59 25.46L103.59 25.46L110.50 25.46L110.50 24.93Q110.54 23.29 109.66 22.39Q108.79 21.48 107.17 21.48ZM131.70 16.61L131.70 38.58L124.84 38.58L124.84 16.61L131.70 16.61ZM124.43 10.94L124.43 10.94Q124.43 9.48 125.49 8.55Q126.54 7.61 128.23 7.61Q129.91 7.61 130.97 8.55Q132.02 9.48 132.02 10.94Q132.02 12.41 130.97 13.34Q129.91 14.27 128.23 14.27Q126.54 14.27 125.49 13.34Q124.43 12.41 124.43 10.94ZM132.87 16.61L139.29 16.61L139.51 19.19Q141.78 16.20 145.78 16.20L145.78 16.20Q149.22 16.20 150.91 18.25Q152.61 20.30 152.67 24.43L152.67 24.43L152.67 38.58L145.80 38.58L145.80 24.71Q145.80 23.05 145.13 22.26Q144.46 21.48 142.70 21.48L142.70 21.48Q140.69 21.48 139.71 23.07L139.71 23.07L139.71 38.58L132.87 38.58L132.87 16.61ZM152.68 27.43L152.68 27.43Q152.68 22.21 154.93 19.21Q157.19 16.20 161.23 16.20L161.23 16.20Q164.17 16.20 166.18 18.52L166.18 18.52L166.18 7.39L173.05 7.39L173.05 38.58L166.89 38.58L166.55 36.22Q164.44 38.99 161.19 38.99L161.19 38.99Q157.27 38.99 154.97 35.98Q152.68 32.98 152.68 27.43ZM159.54 26.60L159.52 27.86Q159.52 33.71 162.93 33.71L162.93 33.71Q165.21 33.71 166.18 31.80L166.18 31.80L166.18 23.43Q165.25 21.48 162.97 21.48L162.97 21.48Q159.81 21.48 159.54 26.60L159.54 26.60ZM187.31 38.58L187.11 36.20Q184.94 38.99 181.24 38.99L181.24 38.99Q177.63 38.99 175.77 36.88Q173.91 34.78 173.91 30.84L173.91 30.84L173.91 16.61L180.75 16.61L180.75 30.88Q180.75 33.71 183.50 33.71L183.50 33.71Q185.85 33.71 186.85 32.02L186.85 32.02L186.85 16.61L193.73 16.61L193.73 38.58L187.31 38.58ZM206.07 32.41L206.07 32.41Q206.07 31.53 205.15 31.01Q204.24 30.48 201.68 29.91Q199.12 29.34 197.46 28.42Q195.79 27.49 194.92 26.17Q194.05 24.85 194.05 23.15L194.05 23.15Q194.05 20.12 196.54 18.16Q199.04 16.20 203.08 16.20L203.08 16.20Q207.43 16.20 210.07 18.17Q212.71 20.14 212.71 23.35L212.71 23.35L205.84 23.35Q205.84 20.71 203.06 20.71L203.06 20.71Q201.99 20.71 201.26 21.31Q200.52 21.91 200.52 22.80L200.52 22.80Q200.52 23.72 201.42 24.28Q202.31 24.85 204.27 25.22Q206.23 25.58 207.71 26.09L207.71 26.09Q212.67 27.80 212.67 32.20L212.67 32.20Q212.67 35.21 210.00 37.10Q207.33 38.99 203.08 38.99L203.08 38.99Q200.26 38.99 198.05 37.97Q195.83 36.95 194.60 35.21Q193.36 33.46 193.36 31.53L193.36 31.53L199.75 31.53Q199.79 33.06 200.77 33.76Q201.74 34.46 203.27 34.46L203.27 34.46Q204.67 34.46 205.37 33.89Q206.07 33.32 206.07 32.41ZM214.08 11.15L220.92 11.15L220.92 16.61L224.54 16.61L224.54 21.36L220.92 21.36L220.92 31.41Q220.92 32.65 221.37 33.14Q221.82 33.62 223.14 33.62L223.14 33.62Q224.15 33.62 224.84 33.50L224.84 33.50L224.84 38.40Q222.99 38.99 220.98 38.99L220.98 38.99Q217.45 38.99 215.77 37.32Q214.08 35.66 214.08 32.26L214.08 32.26L214.08 21.36L211.28 21.36L211.28 16.61L214.08 16.61L214.08 11.15ZM237.73 16.45L237.61 22.80L235.35 22.64Q232.12 22.64 231.21 24.67L231.21 24.67L231.21 38.58L224.37 38.58L224.37 16.61L230.78 16.61L231.01 19.43Q232.73 16.20 235.82 16.20L235.82 16.20Q236.92 16.20 237.73 16.45L237.73 16.45ZM244.38 16.61L244.38 38.58L237.52 38.58L237.52 16.61L244.38 16.61ZM237.11 10.94L237.11 10.94Q237.11 9.48 238.17 8.55Q239.22 7.61 240.91 7.61Q242.59 7.61 243.65 8.55Q244.71 9.48 244.71 10.94Q244.71 12.41 243.65 13.34Q242.59 14.27 240.91 14.27Q239.22 14.27 238.17 13.34Q237.11 12.41 237.11 10.94ZM256.31 38.99L256.31 38.99Q251.26 38.99 248.13 35.97Q245.00 32.95 245.00 28.12L245.00 28.12L245.00 27.55Q245.00 24.18 246.25 21.60Q247.50 19.03 249.90 17.61Q252.29 16.20 255.58 16.20L255.58 16.20Q260.21 16.20 262.89 19.08Q265.57 21.95 265.57 27.09L265.57 27.09L265.57 29.75L251.97 29.75Q252.33 31.59 253.57 32.65Q254.81 33.71 256.78 33.71L256.78 33.71Q260.03 33.71 261.86 31.43L261.86 31.43L264.98 35.13Q263.70 36.89 261.36 37.94Q259.01 38.99 256.31 38.99ZM255.54 21.48L255.54 21.48Q252.54 21.48 251.97 25.46L251.97 25.46L258.87 25.46L258.87 24.93Q258.91 23.29 258.04 22.39Q257.17 21.48 255.54 21.48ZM276.92 32.41L276.92 32.41Q276.92 31.53 276.00 31.01Q275.09 30.48 272.53 29.91Q269.97 29.34 268.31 28.42Q266.64 27.49 265.77 26.17Q264.89 24.85 264.89 23.15L264.89 23.15Q264.89 20.12 267.39 18.16Q269.89 16.20 273.93 16.20L273.93 16.20Q278.28 16.20 280.92 18.17Q283.55 20.14 283.55 23.35L283.55 23.35L276.69 23.35Q276.69 20.71 273.91 20.71L273.91 20.71Q272.83 20.71 272.10 21.31Q271.37 21.91 271.37 22.80L271.37 22.80Q271.37 23.72 272.27 24.28Q273.16 24.85 275.12 25.22Q277.08 25.58 278.56 26.09L278.56 26.09Q283.51 27.80 283.51 32.20L283.51 32.20Q283.51 35.21 280.84 37.10Q278.17 38.99 273.93 38.99L273.93 38.99Q271.11 38.99 268.89 37.97Q266.68 36.95 265.44 35.21Q264.20 33.46 264.20 31.53L264.20 31.53L270.60 31.53Q270.64 33.06 271.62 33.76Q272.59 34.46 274.11 34.46L274.11 34.46Q275.51 34.46 276.21 33.89Q276.92 33.32 276.92 32.41Z" transform="translate(0, 0)"></path></g></svg></svg>